<?xml version="1.0" encoding="UTF-8"?>
<svg version="1.1" xmlns="http://www.w3.org/2000/svg" width="1307" height="980">
<path d="M0 0 C3.10777871 5.52493993 3.68328858 10.33516306 4.27734375 16.5625 C5.16635861 20.79132743 5.88696146 22.9473637 9 26 C12.67335736 26.61630644 16.2361276 26.33391796 19.9375 26.0625 C30.11060135 25.35336525 30.11060135 25.35336525 34.1484375 28.2890625 C36.64684387 31.94706676 36.81281532 33.64035417 36 38 C32.86846504 44.06811055 27.82408093 47.84723432 22.52734375 51.94921875 C13.13237583 59.57264713 7.57396921 68.91747166 6 81 C4.58501093 95.5439383 8.35584326 109.02333855 12 123 C12.37632568 124.45212891 12.37632568 124.45212891 12.76025391 125.93359375 C14.9379868 134.2647731 17.24176573 142.55347772 19.7578125 150.7890625 C24.19743832 165.38224362 27.58965841 179.93366761 30 195 C30.16516113 196.0120752 30.33032227 197.02415039 30.50048828 198.06689453 C32.91197859 213.54581937 33.2828779 228.93021535 33.3125 244.5625 C33.31801376 245.95755768 33.31801376 245.95755768 33.32363892 247.38079834 C33.4332499 300.45478688 18.72669021 355.4184145 -11.79492188 399.25537109 C-13.60924554 401.88202363 -15.32561929 404.57172995 -17.0625 407.25 C-24.58853683 418.46257114 -33.19458734 428.78355049 -42 439 C-42.66128906 439.77472656 -43.32257812 440.54945313 -44.00390625 441.34765625 C-47.2706843 445.14062674 -50.67528671 448.7119439 -54.25 452.21484375 C-56.09335426 454.09522968 -57.79471921 456.05651121 -59.5 458.0625 C-62.25717428 461.27197478 -65.19208485 463.9567601 -68.453125 466.640625 C-70.17625603 468.07389156 -70.17625603 468.07389156 -71.9375 470.4375 C-74.86161619 474.07049284 -78.2694866 477.1980776 -82 480 C-82.66 480 -83.32 480 -84 480 C-84 480.66 -84 481.32 -84 482 C-85.55240341 483.39325954 -87.17029985 484.71380128 -88.8125 486 C-92.78578554 489.17254687 -96.58932823 492.4066882 -100.3125 495.875 C-106.04633547 501.14392989 -112.0932008 505.91901 -118.26220703 510.66064453 C-119.90970886 511.93041062 -121.54794034 513.21111954 -123.18359375 514.49609375 C-129.23516868 519.2179843 -135.39710563 523.72592534 -141.6875 528.125 C-147.9835583 532.53189277 -154.12681069 537.03439057 -160 542 C-160.77730469 542.65484375 -161.55460938 543.3096875 -162.35546875 543.984375 C-180.17539636 559.38652348 -191.99520063 580.49575135 -201 602 C-201.30631348 602.71865234 -201.61262695 603.43730469 -201.92822266 604.17773438 C-206.69481528 616.64730157 -205.17409251 631.80699497 -205.203125 644.9765625 C-205.21001757 646.92388427 -205.21696683 648.87120584 -205.22396851 650.81852722 C-205.24318844 657.08735302 -205.24764054 663.35614853 -205.25 669.625 C-205.25088371 670.69270504 -205.25176743 671.76041008 -205.25267792 672.86046982 C-205.28499009 716.82944327 -203.74863621 760.53789634 -201.07250977 804.41894531 C-201.02877228 805.13731567 -200.98503479 805.85568604 -200.93997192 806.5958252 C-200.81695754 808.61435669 -200.69352089 810.63286244 -200.57006836 812.65136719 C-200.0475168 821.7244971 -199.76826066 830.78602487 -199.70346069 839.87295532 C-199.69305426 841.30054698 -199.67830966 842.72811561 -199.65859985 844.15560913 C-199.53595946 854.24426719 -199.97425481 864.26150542 -206.41796875 872.53515625 C-209.45528329 875.34748453 -213.13823915 876.66201718 -217 878 C-217.90516357 878.33845947 -218.81032715 878.67691895 -219.74291992 879.02563477 C-223.12611976 880.0377291 -225.96967284 880.31341922 -229.4921875 880.4140625 C-231.29042969 880.47207031 -231.29042969 880.47207031 -233.125 880.53125 C-234.3625 880.5621875 -235.6 880.593125 -236.875 880.625 C-238.76605469 880.68300781 -238.76605469 880.68300781 -240.6953125 880.7421875 C-243.79673137 880.83616989 -246.89814886 880.92183411 -250 881 C-250.81381795 879.06305322 -251.62600916 877.12542289 -252.4375 875.1875 C-252.88996094 874.10855469 -253.34242188 873.02960937 -253.80859375 871.91796875 C-254.60375013 869.9704874 -255.33479648 867.99561057 -256 866 C-258.29534258 864.86454438 -258.29534258 864.86454438 -261 864 C-261.77472656 863.66097656 -262.54945313 863.32195313 -263.34765625 862.97265625 C-268.77053877 860.98399977 -274.31333188 860.98768809 -279.7265625 863.02734375 C-287.65503165 867.35087451 -292.46766445 873.97864699 -295.41699219 882.48657227 C-296.24329673 886.04888604 -296.65384284 889.65021437 -297.078125 893.27734375 C-297.21275146 894.39200012 -297.21275146 894.39200012 -297.35009766 895.5291748 C-297.56985277 897.35240974 -297.78535188 899.17615677 -298 901 C-376.00138796 901.99870457 -376.00138796 901.99870457 -391 888 C-395.78022124 881.52995532 -397.28682218 874.81104677 -397.30859375 866.91015625 C-397.33133448 865.31566731 -397.35454591 863.72118503 -397.37817383 862.12670898 C-397.38732819 861.29920135 -397.39648254 860.47169373 -397.40591431 859.61911011 C-397.30712683 821.26894435 -397.30712683 821.26894435 -412.5546875 787.05859375 C-420.4383359 779.53329301 -430.47840406 778.37839705 -440.90136719 778.45703125 C-453.76653672 778.91159742 -466.08585923 782.49579836 -478.34082031 786.1940918 C-488.52476454 789.25712125 -498.73212671 791.4278522 -509.1875 793.3125 C-509.89887115 793.44155731 -510.61024231 793.57061462 -511.34317017 793.70358276 C-522.11905475 795.64398656 -532.66107789 797.19772864 -543.625 797.0625 C-544.34300781 797.05798828 -545.06101562 797.05347656 -545.80078125 797.04882812 C-547.53389208 797.03727405 -549.2669587 797.01935158 -551 797 C-552.72914817 805.65283209 -553.28075545 813.9510187 -553.2734375 822.76171875 C-553.29371123 825.37044712 -553.3145617 827.97917106 -553.3359375 830.58789062 C-553.3606551 834.64949413 -553.37588034 838.71103055 -553.38085938 842.77270508 C-553.3868698 846.7276065 -553.42416766 850.68198244 -553.4609375 854.63671875 C-553.45589203 855.84317551 -553.45084656 857.04963226 -553.44564819 858.29264832 C-553.53955713 866.37712384 -554.49781146 873.18879482 -560.125 879.3125 C-569.81775054 885.00172314 -580.03877083 887.34201345 -591.19140625 887.1953125 C-592.02212143 887.1924826 -592.85283661 887.18965271 -593.70872498 887.18673706 C-596.32680505 887.17566291 -598.94452571 887.1505836 -601.5625 887.125 C-603.35220855 887.11495365 -605.14192254 887.10583072 -606.93164062 887.09765625 C-611.28789604 887.07576565 -615.64388738 887.04132633 -620 887 C-619.97389648 885.9780957 -619.97389648 885.9780957 -619.94726562 884.93554688 C-619.93373047 884.03900391 -619.92019531 883.14246094 -619.90625 882.21875 C-619.88884766 881.33123047 -619.87144531 880.44371094 -619.85351562 879.52929688 C-620.04789762 876.17296784 -621.28808779 873.85318701 -623 871 C-623 870.34 -623 869.68 -623 869 C-623.66 869 -624.32 869 -625 869 C-625.33 868.01 -625.66 867.02 -626 866 C-631.97019098 861.44620637 -637.96674447 861.40124841 -645.1015625 862.25 C-650.61041718 863.27094604 -654.39405533 865.73689719 -658 870 C-663.17169211 877.94390544 -665.01435238 884.42210225 -665.5625 893.8125 C-665.62727539 894.85180664 -665.62727539 894.85180664 -665.69335938 895.91210938 C-665.79861453 897.60788686 -665.89972863 899.30392052 -666 901 C-672.06077936 901.05023279 -678.12143198 901.0861042 -684.18237305 901.10986328 C-686.23512895 901.11979003 -688.28787123 901.13333583 -690.34057617 901.15087891 C-747.67006266 901.62780637 -747.67006266 901.62780637 -762.5 887.125 C-770.12642051 877.21778083 -770.65003578 863.47934351 -771.41156006 851.43002319 C-771.67205154 847.34416211 -771.98574492 843.26225457 -772.29296875 839.1796875 C-772.35228577 838.37728134 -772.41160278 837.57487518 -772.47271729 836.74815369 C-774.38771379 811.21547167 -779.014441 785.86730804 -783.1875 760.625 C-783.34210693 759.68785156 -783.49671387 758.75070312 -783.65600586 757.78515625 C-784.53031678 752.56493593 -785.50454602 747.37450147 -786.56030273 742.18798828 C-787.0654675 739.67422557 -787.50803546 737.15270559 -787.9375 734.625 C-788.79652896 729.81579065 -789.94126086 725.12436888 -791.21875 720.41015625 C-792.12924314 716.4358537 -792.77094185 712.4471427 -793.42431641 708.42358398 C-794.37203208 702.78752935 -795.46897287 697.1797204 -796.54351807 691.56680298 C-801.32656048 666.47528112 -804.36414403 641.3960393 -807 616 C-823.32247943 644.62003886 -827.21047505 672.02642376 -827 704.625 C-826.97346232 708.80468463 -826.95349134 712.98432581 -826.9375 717.1640625 C-826.92920166 718.12228912 -826.92090332 719.08051575 -826.91235352 720.06777954 C-826.90739868 721.39088638 -826.90739868 721.39088638 -826.90234375 722.74072266 C-826.89710693 723.51727203 -826.89187012 724.29382141 -826.88647461 725.09390259 C-827 727 -827 727 -828 729 C-830.3125 729.3125 -830.3125 729.3125 -833 729 C-836.71709127 724.55061394 -836.94379011 719.23394186 -837.625 713.6875 C-837.80675781 712.31948242 -837.80675781 712.31948242 -837.9921875 710.92382812 C-838.23114571 709.11216125 -838.46247257 707.29947092 -838.68603516 705.48583984 C-838.94566512 703.43020041 -839.24842543 701.38005917 -839.5625 699.33203125 C-844.69907465 657.29155065 -835.29855362 612.64104593 -814.9375 575.8125 C-807.08250271 561.57937972 -802.38156724 548.874534 -798.74267578 533.03417969 C-794.81184631 516.32869056 -788.08333199 501.08357713 -780 486 C-779.68063477 485.39994141 -779.36126953 484.79988281 -779.03222656 484.18164062 C-774.05479741 474.91402127 -768.27663617 466.42417945 -762 458 C-761.41605469 457.20078125 -760.83210938 456.4015625 -760.23046875 455.578125 C-756.27362761 450.30233681 -751.86340856 445.48989693 -747.35009766 440.69116211 C-744.94702175 438.1341849 -742.61052106 435.56229372 -740.390625 432.84375 C-738.32977255 430.39227846 -736.2866381 428.28231505 -733.875 426.1875 C-733.21242188 425.60355469 -732.54984375 425.01960938 -731.8671875 424.41796875 C-730 423 -730 423 -727 422 C-727 421.34 -727 420.68 -727 420 C-725.40209961 418.5546875 -725.40209961 418.5546875 -723.15234375 416.875 C-721.9156897 415.94675415 -721.9156897 415.94675415 -720.65405273 414.99975586 C-719.75759033 414.33983643 -718.86112793 413.67991699 -717.9375 413 C-717.01718994 412.3201001 -716.09687988 411.6402002 -715.14868164 410.93969727 C-712.43981017 408.94948192 -709.7214588 406.9729536 -707 405 C-706.34515625 404.51901855 -705.6903125 404.03803711 -705.015625 403.54248047 C-686.28235855 389.87753301 -663.82626293 378.96531086 -641.7890625 371.9296875 C-639.17507069 371.0583569 -636.66421524 370.06696666 -634.125 369 C-627.90729444 366.45911071 -621.47925435 364.73939714 -615 363 C-613.54980469 362.5978125 -613.54980469 362.5978125 -612.0703125 362.1875 C-605.2740586 360.38018594 -598.43705129 359.16002792 -591.49316406 358.08959961 C-586.5733521 357.32012702 -581.81623319 356.26943703 -577 355 C-576.8548999 354.22624023 -576.7097998 353.45248047 -576.56030273 352.65527344 C-573.51580583 336.64408985 -570.14473038 321.16079879 -564 306 C-563.55672363 304.89664307 -563.55672363 304.89664307 -563.10449219 303.77099609 C-559.7134595 295.43424415 -555.88650111 287.57597071 -551 280 C-550.49082031 279.1440625 -549.98164062 278.288125 -549.45703125 277.40625 C-544.72301549 269.57994365 -539.06553208 262.80788078 -533 256 C-532.40445312 255.319375 -531.80890625 254.63875 -531.1953125 253.9375 C-513.72266217 235.16092054 -486.9722356 226.72729286 -462.015625 225.78125 C-432.76673872 225.07857405 -403.90160928 231.15320511 -376.59765625 241.38671875 C-375.46884033 241.80598633 -374.34002441 242.22525391 -373.17700195 242.65722656 C-370.92128452 243.49992673 -368.67087772 244.35700452 -366.42651367 245.22949219 C-365.39373291 245.6165332 -364.36095215 246.00357422 -363.296875 246.40234375 C-362.37229492 246.75804443 -361.44771484 247.11374512 -360.49511719 247.48022461 C-358.03201216 248.21927263 -358.03201216 248.21927263 -355.87475586 247.24267578 C-355.25608643 246.83259277 -354.63741699 246.42250977 -354 246 C-353.45448486 245.63898193 -352.90896973 245.27796387 -352.34692383 244.90600586 C-351.80575928 244.51292236 -351.26459473 244.11983887 -350.70703125 243.71484375 C-312.63729747 216.5144165 -264.04647864 204.38208001 -217.58349609 211.59155273 C-188.81329101 216.51788277 -164.91998605 228.27207374 -141.09375 244.69140625 C-134.00586937 249.54595947 -127.1073231 253.99185297 -119 257 C-118.15566406 257.31710937 -117.31132813 257.63421875 -116.44140625 257.9609375 C-100.4201126 263.15059874 -83.52454758 259.74627214 -68.625 252.8125 C-54.29847945 245.15213065 -44.07380245 232.44475889 -39 217 C-31.92231775 191.50857449 -35.23327035 166.05481114 -40.30859375 140.4921875 C-41.32712267 135.34775332 -42.1602375 130.17599067 -43 125 C-43.16967285 124.14245117 -43.3393457 123.28490234 -43.51416016 122.40136719 C-44.11106525 118.22243163 -44.18140691 114.14562128 -44.203125 109.9296875 C-44.20882507 109.05337677 -44.21452515 108.17706604 -44.22039795 107.27420044 C-44.22982282 105.41669915 -44.23637192 103.55918134 -44.24023438 101.70166016 C-44.24980206 98.93229501 -44.28078986 96.16371811 -44.3125 93.39453125 C-44.46088693 68.48666517 -40.07657623 45.8695593 -28 24 C-27.47148438 23.02933594 -26.94296875 22.05867188 -26.3984375 21.05859375 C-20.89511583 11.42042345 -12.42076745 -1.55259593 0 0 Z " fill="#848790" transform="translate(1055,39)"/>
<path d="M0 0 C0.1199723 7.66822927 -0.21229254 15.1272615 -1 22.75 C-3.74444865 52.55404295 -2.81947969 80.93772663 6.8125 109.375 C8 113 8 113 8 116 C8.66 116 9.32 116 10 116 C10.20753906 116.51046875 10.41507812 117.0209375 10.62890625 117.546875 C13.13515607 123.46120512 16.19478442 128.90099174 19.51171875 134.3984375 C21 137 21 137 22 140 C22.66 140 23.32 140 24 140 C25.19813862 141.69736305 26.39250814 143.39764633 27.55859375 145.1171875 C29.0013112 147.00171273 30.45534455 148.34609357 32.3125 149.8125 C33.199375 150.534375 34.08625 151.25625 35 152 C35 152.66 35 153.32 35 154 C35.58007812 154.27328125 36.16015625 154.5465625 36.7578125 154.828125 C38.96564739 155.98204568 40.8590006 157.29094985 42.875 158.75 C48.82742364 162.78420074 55.35580692 165.33590326 62 168 C62.85722656 168.36480469 63.71445312 168.72960937 64.59765625 169.10546875 C77.32999213 173.84645235 92.63741401 172.63193414 106 173 C106.47050781 174.01320313 106.94101562 175.02640625 107.42578125 176.0703125 C108.0546429 177.42189575 108.68355166 178.77345709 109.3125 180.125 C109.62123047 180.79015625 109.92996094 181.4553125 110.24804688 182.140625 C111.69441928 185.24651943 113.16386227 188.31884712 114.73046875 191.3671875 C116 194 116 194 116 196 C116.66 196 117.32 196 118 196 C121 201.75 121 201.75 121 204 C121.66 204 122.32 204 123 204 C126 207.46153846 126 207.46153846 126 210 C126.66 210 127.32 210 128 210 C128.0825 210.61875 128.165 211.2375 128.25 211.875 C128.80583476 214.16088794 128.80583476 214.16088794 130.9375 215.1875 C131.618125 215.455625 132.29875 215.72375 133 216 C133.66 216.33 134.32 216.66 135 217 C135 217.99 135 218.98 135 220 C135.66 220 136.32 220 137 220 C137 220.66 137 221.32 137 222 C137.804375 222.37125 137.804375 222.37125 138.625 222.75 C141 224 141 224 143.6875 225.8125 C149.83428144 229.87169529 156.17378809 233.24046753 163 236 C163 236.66 163 237.32 163 238 C163.6290625 238.10957031 164.258125 238.21914063 164.90625 238.33203125 C169.07938313 239.10506645 173.05611092 239.90789724 177 241.5 C185.61990165 244.92555051 194.49735603 245.41656573 203.6875 245.4375 C205.39691772 245.44221313 205.39691772 245.44221313 207.14086914 245.44702148 C216.32413131 245.31722042 223.63423845 243.74678013 232 240 C232.99 239.67 233.98 239.34 235 239 C235 238.34 235 237.68 235 237 C235.886875 236.608125 236.77375 236.21625 237.6875 235.8125 C241.12933227 233.92923328 243.28170766 231.7917597 246 229 C246.99 228.67 247.98 228.34 249 228 C249 227.34 249 226.68 249 226 C249.66 226 250.32 226 251 226 C251.24105469 225.49726562 251.48210937 224.99453125 251.73046875 224.4765625 C253.48719299 221.04959891 255.40860835 217.72184933 257.3125 214.375 C263.26784224 203.83111537 268.24894174 193.54171772 272 182 C272.66 182 273.32 182 274 182 C274.12375 180.824375 274.2475 179.64875 274.375 178.4375 C274.86435935 174.45879574 275.8055205 170.82233441 277 167 C278.35100649 171.05301946 277.47263221 174.45786572 276.75 178.5625 C276.61086182 179.37517334 276.47172363 180.18784668 276.32836914 181.02514648 C275.42960698 186.08744837 274.29987889 190.96202758 272.6796875 195.84765625 C271.98325729 198.05301858 271.51056281 200.23217333 271.0625 202.5 C268.49840939 214.51520144 261.86831551 225.35878787 256 236 C255.34 236 254.68 236 254 236 C253.71125 236.7425 253.4225 237.485 253.125 238.25 C252.17697356 240.56739797 251.15154089 242.77917115 250 245 C249.34 245 248.68 245 248 245 C248 245.66 248 246.32 248 247 C243.70760268 251.19019738 238.9588464 254.44760207 233.9375 257.6875 C233.3482373 258.067854 232.75897461 258.44820801 232.15185547 258.84008789 C218.35457547 267.58709362 204.17583597 269.75710209 188.1875 269.5625 C187.44875641 269.55890472 186.71001282 269.55530945 185.94888306 269.55160522 C174.03689612 269.46884403 163.20496483 268.18592921 152 264 C150.78828125 263.58105469 149.5765625 263.16210938 148.328125 262.73046875 C131.64592662 256.67644515 131.64592662 256.67644515 126 251 C124.845 250.46375 123.69 249.9275 122.5 249.375 C116.67880629 246.59472838 111.6542679 242.43182127 107 238 C107 237.34 107 236.68 107 236 C106.4225 235.773125 105.845 235.54625 105.25 235.3125 C102.40408619 233.65238361 101.00158079 231.60812043 99 229 C96.51505729 226.45134081 93.98345981 223.98464125 91.375 221.5625 C89 219 89 219 87.71484375 215.89453125 C86.31067895 212.76967251 86.31067895 212.76967251 83.41796875 212.2578125 C81.81888672 212.19207031 81.81888672 212.19207031 80.1875 212.125 C73.27441259 211.42721698 67.2612655 209.59191328 60.75 207.1875 C59.84016357 206.85572754 58.93032715 206.52395508 57.99291992 206.18212891 C50.68595371 203.43349741 43.51150619 200.34100413 37 196 C37 195.34 37 194.68 37 194 C36.21625 193.814375 35.4325 193.62875 34.625 193.4375 C29.56948069 191.4327251 25.1687768 188.49320428 21 185 C21 184.34 21 183.68 21 183 C19.68 182.67 18.36 182.34 17 182 C17 181.34 17 180.68 17 180 C16.071875 179.62875 16.071875 179.62875 15.125 179.25 C12.64931313 177.79371361 12.04874998 176.62187494 11 174 C10.34 174 9.68 174 9 174 C6 170.53846154 6 170.53846154 6 168 C5.34 168 4.68 168 4 168 C4 167.34 4 166.68 4 166 C3.01 165.67 2.02 165.34 1 165 C-0.03432904 163.01753602 -1.03238392 161.01586684 -2 159 C-2.53625 158.505 -3.0725 158.01 -3.625 157.5 C-5.67610097 155.2624353 -5.67316331 152.9415302 -6 150 C-6.66 150 -7.32 150 -8 150 C-21.40769402 126.54485288 -25.2261464 103.11670626 -25.1875 76.3125 C-25.18722809 75.60279053 -25.18695618 74.89308105 -25.18667603 74.16186523 C-25.16870418 63.96765839 -24.84391828 54.06187505 -23 44 C-22.76768394 42.64071807 -22.53593651 41.28133887 -22.3046875 39.921875 C-20.39273612 28.99352312 -18.03480576 18.35015391 -14 8 C-13.2806523 5.67766145 -12.63570027 3.347201 -12 1 C-7.9472484 0.01751476 -4.16138263 -0.08159574 0 0 Z " fill="#5F6267" transform="translate(477,396)"/>
<path d="M0 0 C0.33 0 0.66 0 1 0 C1.00586624 1.15191833 1.01173248 2.30383667 1.01777649 3.49066162 C1.2419933 72.92326825 1.2419933 72.92326825 3.4375 142.3125 C3.47036354 143.00149006 3.50322708 143.69048012 3.53708649 144.40034866 C4.22571486 158.74025597 5.04830303 173.07189241 5.92529297 187.40136719 C5.96942322 188.12287964 6.01355347 188.84439209 6.059021 189.58776855 C6.18273462 191.60961942 6.30645506 193.63146988 6.43017578 195.65332031 C6.95237573 204.72581421 7.23174398 213.78667629 7.29653931 222.87295532 C7.30694574 224.30054698 7.32169034 225.72811561 7.34140015 227.15560913 C7.46404054 237.24426719 7.02574519 247.26150542 0.58203125 255.53515625 C-2.45528329 258.34748453 -6.13823915 259.66201718 -10 261 C-10.90516357 261.33845947 -11.81032715 261.67691895 -12.74291992 262.02563477 C-16.12611976 263.0377291 -18.96967284 263.31341922 -22.4921875 263.4140625 C-23.69101562 263.45273437 -24.88984375 263.49140625 -26.125 263.53125 C-27.98125 263.57765625 -27.98125 263.57765625 -29.875 263.625 C-31.13570312 263.66367187 -32.39640625 263.70234375 -33.6953125 263.7421875 C-36.79673137 263.83616989 -39.89814886 263.92183411 -43 264 C-42.91588021 242.37179154 -42.82066705 220.74365676 -42.71247292 199.11555481 C-42.66248431 189.07184348 -42.61604055 179.02813976 -42.578125 168.984375 C-42.54504456 160.22385758 -42.5051264 151.46340167 -42.45720994 142.70295238 C-42.43210347 138.07016998 -42.41027666 133.43742754 -42.39665604 128.80459595 C-42.38369019 124.43138071 -42.36148444 120.05830365 -42.33261681 115.68516541 C-42.32365309 114.09224455 -42.31787754 112.49930152 -42.31578636 110.90635681 C-42.28182689 88.93927968 -38.20019212 71.86961771 -27.03955078 52.78710938 C-25.63761908 50.37702481 -24.28467119 47.94102814 -22.9375 45.5 C-22.55464844 44.8090625 -22.17179688 44.118125 -21.77734375 43.40625 C-21.52082031 42.9421875 -21.26429688 42.478125 -21 42 C-20.34 42 -19.68 42 -19 42 C-19 40.68 -19 39.36 -19 38 C-18.34 38 -17.68 38 -17 38 C-16.82984375 37.443125 -16.6596875 36.88625 -16.484375 36.3125 C-14.99091203 31.60968043 -13.24702753 27.27422407 -10.97265625 22.8984375 C-8.47799853 18.02934653 -6.58554252 12.92429947 -4.6953125 7.80078125 C-3.92110001 5.79565789 -3.02368126 3.88987309 -2 2 C-1.34 2 -0.68 2 0 2 C0 1.34 0 0.68 0 0 Z " fill="#606367" transform="translate(848,656)"/>
<path d="M0 0 C1.22339081 0.00212242 1.22339081 0.00212242 2.47149658 0.00428772 C5.06957712 0.00987322 7.66757063 0.02242304 10.265625 0.03515625 C12.02994667 0.04017313 13.79426969 0.04473571 15.55859375 0.04882812 C19.87763756 0.0598379 24.19661654 0.07709256 28.515625 0.09765625 C28.44547684 0.80424881 28.37532867 1.51084137 28.30305481 2.23884583 C27.57587319 10.12690201 27.36731274 17.94123173 27.33984375 25.859375 C27.31666636 28.46810721 27.29254991 31.07683122 27.26757812 33.68554688 C27.23121882 37.74715404 27.20135573 41.80860239 27.18969727 45.87036133 C27.17761501 49.82531134 27.13400826 53.77964985 27.08984375 57.734375 C27.09175217 58.94083176 27.09366058 60.14728851 27.09562683 61.39030457 C26.97898782 69.46624699 26.01205913 76.29271322 20.390625 82.41015625 C10.69787446 88.09937939 0.47685417 90.4396697 -10.67578125 90.29296875 C-11.50649643 90.29013885 -12.33721161 90.28730896 -13.19309998 90.28439331 C-15.81118005 90.27331916 -18.42890071 90.24823985 -21.046875 90.22265625 C-22.83658355 90.2126099 -24.62629754 90.20348697 -26.41601562 90.1953125 C-30.77227104 90.1734219 -35.12826238 90.13898258 -39.484375 90.09765625 C-39.41726318 89.4648877 -39.35015137 88.83211914 -39.28100586 88.18017578 C-38.65625558 81.6268116 -38.3634636 75.10539523 -38.23828125 68.52734375 C-38.22163422 67.67408508 -38.20498718 66.82082642 -38.18783569 65.94171143 C-38.12139944 62.38879458 -38.05948875 58.83587525 -38.00756836 55.28271484 C-37.83885018 44.22005594 -37.67288915 33.70620126 -33.921875 23.16015625 C-33.54869141 22.09474609 -33.54869141 22.09474609 -33.16796875 21.0078125 C-32.94238281 20.37746094 -32.71679688 19.74710938 -32.484375 19.09765625 C-32.154375 18.10765625 -31.824375 17.11765625 -31.484375 16.09765625 C-30.824375 16.09765625 -30.164375 16.09765625 -29.484375 16.09765625 C-29.154375 14.77765625 -28.824375 13.45765625 -28.484375 12.09765625 C-27.824375 12.09765625 -27.164375 12.09765625 -26.484375 12.09765625 C-26.29875 11.35515625 -26.113125 10.61265625 -25.921875 9.84765625 C-23.9521216 6.07943236 -21.38871717 4.6309065 -17.484375 3.09765625 C-14.546875 2.84765625 -14.546875 2.84765625 -12.484375 3.09765625 C-12.484375 2.43765625 -12.484375 1.77765625 -12.484375 1.09765625 C-8.32032736 -0.06896327 -4.2945682 -0.02810438 0 0 Z " fill="#5F6267" transform="translate(474.484375,835.90234375)"/>
<path d="M0 0 C2 2 2 2 2.5 4.875 C2.17586292 15.96511851 -7.46695682 26.6651948 -15 34 C-15.60457031 34.78375 -16.20914063 35.5675 -16.83203125 36.375 C-20.60706409 40.94585057 -25.34530012 44.36408764 -30 48 C-30.87011719 48.68578125 -31.74023438 49.3715625 -32.63671875 50.078125 C-43.68366355 58.46653749 -55.88554508 64.53819509 -69 69 C-69.66773438 69.24621094 -70.33546875 69.49242187 -71.0234375 69.74609375 C-75.64158382 71.20817064 -80.37758232 71.23205576 -85.1875 71.3125 C-86.2225769 71.33920776 -86.2225769 71.33920776 -87.27856445 71.36645508 C-92.96872379 71.35748985 -95.97039096 69.73966489 -100.1875 66.125 C-105.47022686 59.93145817 -104.61183598 51.63042558 -104.19970703 43.94482422 C-103.54321965 37.5516965 -99.78572569 33.06786684 -95 29 C-91.80073398 27.03758351 -89.38857339 26.76011181 -85.66015625 26.76171875 C-84.08053101 26.74274536 -84.08053101 26.74274536 -82.46899414 26.72338867 C-81.34485107 26.71154541 -80.22070801 26.69970215 -79.0625 26.6875 C-66.8116163 26.39148603 -55.7163956 24.4963299 -44 21 C-42.95070313 20.70222656 -41.90140625 20.40445312 -40.8203125 20.09765625 C-29.03608176 16.30362351 -17.95011166 9.23547489 -8.4296875 1.43359375 C-5.39110345 -0.35926854 -3.47281112 -0.41846893 0 0 Z " fill="#FBFCFC" transform="translate(965,411)"/>
<path d="M0 0 C6.4685763 -0.44765234 10.62241798 1.695321 15.9453125 5.21875 C15.9453125 6.20875 15.9453125 7.19875 15.9453125 8.21875 C16.6053125 8.21875 17.2653125 8.21875 17.9453125 8.21875 C22.33755504 15.40605598 21.87332149 16.93866008 20.9453125 26.21875 C29.8553125 26.21875 38.7653125 26.21875 47.9453125 26.21875 C47.9453125 26.54875 47.9453125 26.87875 47.9453125 27.21875 C38.3753125 27.21875 28.8053125 27.21875 18.9453125 27.21875 C18.6153125 28.53875 18.2853125 29.85875 17.9453125 31.21875 C6.5676518 39.95044309 -11.3224405 39.45780266 -25.0546875 39.21875 C-25.54310809 26.50172502 -24.38429241 17.19555767 -16.0546875 7.21875 C-10.89221601 2.30358254 -7.0054346 0.74582574 0 0 Z " fill="#DDDEDF" transform="translate(414.0546875,899.78125)"/>
<path d="M0 0 C5.16722189 2.9163176 7.69685663 6.50332029 9.625 12.0625 C10.81637262 17.02655257 11.29801586 20.56308185 8.625 25.0625 C7.125 26.8125 7.125 26.8125 5.625 28.0625 C4.965 28.0625 4.305 28.0625 3.625 28.0625 C3.13 29.5475 3.13 29.5475 2.625 31.0625 C-9.17356602 36.84853325 -24.44402225 37.27162632 -37.375 37.0625 C-37.19514691 25.09409405 -35.81916515 13.5937516 -27.08984375 4.53125 C-18.83189738 -2.54161523 -10.16850125 -4.33634451 0 0 Z " fill="#DDDEE0" transform="translate(794.375,901.9375)"/>
<path d="M0 0 C4.85901474 2.29698879 7.66907123 5.15884024 10 10 C10.50393178 14.54958128 10.45113541 18.64659377 9 23 C8.34 23 7.68 23 7 23 C6.690625 23.8971875 6.690625 23.8971875 6.375 24.8125 C4.39531636 27.9619967 2.46892258 28.71521386 -1 30 C-6.37675513 30.7925894 -10.39426527 30.03559789 -15 27 C-19.67053735 21.8245397 -20.35288022 18.60631056 -20.28125 11.765625 C-19.78356676 6.87173983 -17.45468158 4.3224378 -13.9375 1.125 C-9.3098552 -0.6472895 -4.8864149 -0.63954548 0 0 Z " fill="#36373A" transform="translate(830,373)"/>
<path d="M0 0 C0.33 0 0.66 0 1 0 C3.00961161 7.92743069 3.24309594 15.47638048 3.125 23.625 C3.11597656 24.81996094 3.10695312 26.01492188 3.09765625 27.24609375 C3.07431077 30.16427834 3.04156656 33.08202776 3 36 C2.34 35.67 1.68 35.34 1 35 C0.67 36.98 0.34 38.96 0 41 C-0.33 41 -0.66 41 -1 41 C-1.02481234 36.12532925 -1.0429131 31.25069568 -1.05493164 26.37597656 C-1.05994473 24.71939452 -1.06675689 23.06281687 -1.07543945 21.40625 C-1.08763793 19.01821811 -1.09325867 16.63024498 -1.09765625 14.2421875 C-1.10281754 13.50757294 -1.10797882 12.77295837 -1.11329651 12.01608276 C-1.11374023 7.90221178 -0.80210299 4.03549391 0 0 Z " fill="#9D9EA3" transform="translate(216,693)"/>
<path d="M0 0 C0.33 0 0.66 0 1 0 C1.33 5.61 1.66 11.22 2 17 C0.35 17.33 -1.3 17.66 -3 18 C-3.66 17.34 -4.32 16.68 -5 16 C-6.98 16.99 -6.98 16.99 -9 18 C-7.41579353 12.13843607 -4.37339097 4.37339097 0 0 Z " fill="#F3F4F5" transform="translate(248,654)"/>
<path d="M0 0 C2.97 0.495 2.97 0.495 6 1 C6 1.33 6 1.66 6 2 C13.26 2.33 20.52 2.66 28 3 C28 3.33 28 3.66 28 4 C27.24380371 4.01981934 26.48760742 4.03963867 25.70849609 4.06005859 C22.26366282 4.15564572 18.81940799 4.26518891 15.375 4.375 C14.18519531 4.4059375 12.99539063 4.436875 11.76953125 4.46875 C10.61582031 4.50742187 9.46210937 4.54609375 8.2734375 4.5859375 C7.21560059 4.6173584 6.15776367 4.6487793 5.06787109 4.68115234 C1.77651723 5.02322684 -0.94237161 5.74150274 -4 7 C-4.33 7.66 -4.66 8.32 -5 9 C-5.33 7.35 -5.66 5.7 -6 4 C-4.02 3.01 -2.04 2.02 0 1 C0 0.67 0 0.34 0 0 Z " fill="#95989D" transform="translate(872,434)"/>
<path d="M0 0 C-0.1953125 1.8515625 -0.1953125 1.8515625 -1 4 C-3.1796875 5.3359375 -3.1796875 5.3359375 -5.875 6.375 C-6.75929688 6.73335938 -7.64359375 7.09171875 -8.5546875 7.4609375 C-9.76511719 7.72777344 -9.76511719 7.72777344 -11 8 C-11.99 7.34 -12.98 6.68 -14 6 C-13.34 4.35 -12.68 2.7 -12 1 C-10.35 1 -8.7 1 -7 1 C-7 1.66 -7 2.32 -7 3 C-6.21625 2.505 -5.4325 2.01 -4.625 1.5 C-2 0 -2 0 0 0 Z " fill="#8B8D94" transform="translate(935,424)"/>
<path d="M0 0 C1.1875 1.625 1.1875 1.625 2 4 C1.05439935 6.0262871 0.04622875 8.02379014 -1 10 C-1.35543427 12.33006911 -1.6913753 14.66327016 -2 17 C-2.66 17.99 -3.32 18.98 -4 20 C-4.33 19.67 -4.66 19.34 -5 19 C-5.66 19.99 -6.32 20.98 -7 22 C-6.32296873 18.2030411 -5.29703375 14.65235644 -4.0625 11 C-3.72347656 9.989375 -3.38445312 8.97875 -3.03515625 7.9375 C-2.09133348 5.2591803 -1.0769526 2.62718482 0 0 Z " fill="#8F8F95" transform="translate(493,340)"/>
<path d="M0 0 C0.66 0.66 1.32 1.32 2 2 C0.37633534 5.24732932 -2.75387839 5.70155136 -6 7 C-4.77065985 3.31197956 -3.06140622 2.27643027 0 0 Z M-7 7 C-6.34 7.33 -5.68 7.66 -5 8 C-5 8.66 -5 9.32 -5 10 C-5.99 9.67 -6.98 9.34 -8 9 C-7.67 8.34 -7.34 7.68 -7 7 Z M-11 10 C-10.34 10.33 -9.68 10.66 -9 11 C-9.598125 11.556875 -10.19625 12.11375 -10.8125 12.6875 C-12.98675988 14.9860033 -14.39093014 17.29383705 -16 20 C-16.99 20.495 -16.99 20.495 -18 21 C-18.33 19.68 -18.66 18.36 -19 17 C-16.36 14.69 -13.72 12.38 -11 10 Z " fill="#EEEEF1" transform="translate(990,502)"/>
<path d="M0 0 C0.33 0 0.66 0 1 0 C1.11039334 8.40215965 0.95458649 16.64736824 0 25 C-0.33 25 -0.66 25 -1 25 C-1 22.03 -1 19.06 -1 16 C-1.66 16 -2.32 16 -3 16 C-3.05399736 14.54207116 -3.09279177 13.08357288 -3.125 11.625 C-3.15980469 10.40683594 -3.15980469 10.40683594 -3.1953125 9.1640625 C-3 7 -3 7 -1 5 C-0.35232207 2.42938689 -0.35232207 2.42938689 0 0 Z " fill="#98979F" transform="translate(1087,291)"/>
<path d="M0 0 C0.33 0.99 0.66 1.98 1 3 C1.66 3.33 2.32 3.66 3 4 C3 4.66 3 5.32 3 6 C-1.95 7.485 -1.95 7.485 -7 9 C-7 8.01 -7 7.02 -7 6 C-6.01 5.67 -5.02 5.34 -4 5 C-4 4.34 -4 3.68 -4 3 C-2 1.375 -2 1.375 0 0 Z " fill="#8F8E96" transform="translate(332,456)"/>
<path d="M0 0 C0 0.66 0 1.32 0 2 C-2.76391959 4.45681742 -5.50395006 6.71811502 -9 8 C-9.99 7.67 -10.98 7.34 -12 7 C-12.33 6.34 -12.66 5.68 -13 5 C-11.21046815 4.16209211 -9.41830305 3.32980604 -7.625 2.5 C-6.62726562 2.0359375 -5.62953125 1.571875 -4.6015625 1.09375 C-2 0 -2 0 0 0 Z " fill="#92929A" transform="translate(917,471)"/>
<path d="M0 0 C0.33 0.99 0.66 1.98 1 3 C1.66 3.33 2.32 3.66 3 4 C1.71283353 5.00578589 0.42011342 6.00446798 -0.875 7 C-1.95394531 7.8353125 -1.95394531 7.8353125 -3.0546875 8.6875 C-5 10 -5 10 -7 10 C-6.625 8.0625 -6.625 8.0625 -6 6 C-5.34 5.67 -4.68 5.34 -4 5 C-3.67 4.01 -3.34 3.02 -3 2 C-2.01 1.34 -1.02 0.68 0 0 Z " fill="#F1F2F2" transform="translate(712,272)"/>
<path d="M0 0 C0.99 0.33 1.98 0.66 3 1 C1.47291037 4.43595166 -0.59927045 7.11912454 -3 10 C-5.475 9.01 -5.475 9.01 -8 8 C-7.236875 7.4225 -6.47375 6.845 -5.6875 6.25 C-3.33799083 4.28296907 -1.70676495 2.51523256 0 0 Z " fill="#EDEEED" transform="translate(498,913)"/>
<path d="M0 0 C0.66 0.33 1.32 0.66 2 1 C2 3.31 2 5.62 2 8 C1.67 7.34 1.34 6.68 1 6 C0.34 6 -0.32 6 -1 6 C-1 6.66 -1 7.32 -1 8 C-2.65 8 -4.3 8 -6 8 C-2.25 2.25 -2.25 2.25 0 0 Z " fill="#8F8E96" transform="translate(301,487)"/>
<path d="M0 0 C0.99 0.66 1.98 1.32 3 2 C3 2.99 3 3.98 3 5 C2.34 5 1.68 5 1 5 C1 5.66 1 6.32 1 7 C-1.5 8.625 -1.5 8.625 -4 10 C-4 5.28093812 -2.71245796 3.72962969 0 0 Z " fill="#EFF3F1" transform="translate(1037,446)"/>
<path d="M0 0 C0 3.72055546 -0.81297638 5.01106771 -3 8 C-6.1875 10.3125 -6.1875 10.3125 -9 12 C-9.66 11.67 -10.32 11.34 -11 11 C-7.37 7.37 -3.74 3.74 0 0 Z " fill="#919499" transform="translate(529,288)"/>
<path d="M0 0 C0.66 0.33 1.32 0.66 2 1 C2.34342449 2.33076989 2.67619874 3.66431979 3 5 C3.66 5.66 4.32 6.32 5 7 C4.625 9.125 4.625 9.125 4 11 C1.4375 8.875 1.4375 8.875 -1 6 C-0.8125 2.6875 -0.8125 2.6875 0 0 Z " fill="#8C8F94" transform="translate(290,915)"/>
<path d="M0 0 C0.66 0.33 1.32 0.66 2 1 C0.4855048 5.24058656 -2.33731959 6.60804544 -6 9 C-7.83300909 11.10575643 -7.83300909 11.10575643 -9 13 C-9.33 12.01 -9.66 11.02 -10 10 C-6.7 6.7 -3.4 3.4 0 0 Z " fill="#EEEFF2" transform="translate(1078,89)"/>
<path d="M0 0 C1.32 0.66 2.64 1.32 4 2 C3.01 3.485 3.01 3.485 2 5 C1.34 5 0.68 5 0 5 C-0.66 6.32 -1.32 7.64 -2 9 C-2.66 8.67 -3.32 8.34 -4 8 C-2.99983813 4.9995144 -1.6627026 2.67478244 0 0 Z " fill="#EFEFEF" transform="translate(317,464)"/>
<path d="M0 0 C0.53625 0.391875 1.0725 0.78375 1.625 1.1875 C0.635 1.5175 -0.355 1.8475 -1.375 2.1875 C-1.705 2.8475 -2.035 3.5075 -2.375 4.1875 C-1.715 4.5175 -1.055 4.8475 -0.375 5.1875 C-2.685 5.1875 -4.995 5.1875 -7.375 5.1875 C-7.705 4.1975 -8.035 3.2075 -8.375 2.1875 C-2.95961538 -1.0125 -2.95961538 -1.0125 0 0 Z " fill="#8E8D94" transform="translate(558.375,272.8125)"/>
<path d="M0 0 C0.66 0 1.32 0 2 0 C2.33 0.66 2.66 1.32 3 2 C3.99 2 4.98 2 6 2 C4.35 3.98 2.7 5.96 1 8 C0.34 7.67 -0.32 7.34 -1 7 C-0.67 4.69 -0.34 2.38 0 0 Z " fill="#EFEFEF" transform="translate(306,473)"/>
<path d="M0 0 C0.66 1.32 1.32 2.64 2 4 C-0.66666667 6 -3.33333333 8 -6 10 C-6.66 9.67 -7.32 9.34 -8 9 C-5.36 6.03 -2.72 3.06 0 0 Z " fill="#8E9093" transform="translate(1006,275)"/>
<path d="M0 0 C-0.33 1.32 -0.66 2.64 -1 4 C-4.375 4.125 -4.375 4.125 -8 4 C-8.66 3.34 -9.32 2.68 -10 2 C-3.375 -1.125 -3.375 -1.125 0 0 Z " fill="#E6EAED" transform="translate(848,914)"/>
<path d="M0 0 C1.32 0.33 2.64 0.66 4 1 C3.67 2.65 3.34 4.3 3 6 C2.38125 6.144375 1.7625 6.28875 1.125 6.4375 C-1.03258322 6.93152225 -1.03258322 6.93152225 -3 8 C-1.125 2.25 -1.125 2.25 0 0 Z " fill="#8E9098" transform="translate(273,528)"/>
<path d="M0 0 C3.31282503 4.41710004 3.66466086 5.68271312 3 11 C1.68 12.32 0.36 13.64 -1 15 C-0.67 10.05 -0.34 5.1 0 0 Z " fill="#7E8186" transform="translate(477,396)"/>
<path d="M0 0 C0.66 0 1.32 0 2 0 C2.33 1.65 2.66 3.3 3 5 C-1.75 8 -1.75 8 -4 8 C-2.87548273 5.0280615 -1.77706209 2.66559313 0 0 Z " fill="#EFEFEF" transform="translate(869,610)"/>
<path d="M0 0 C0.99 0.33 1.98 0.66 3 1 C0.55319149 4.79255319 0.55319149 4.79255319 -2 5.75 C-4 6 -4 6 -7 6 C-4.74259377 3.66475218 -2.7194239 1.81294927 0 0 Z " fill="#95959A" transform="translate(363,434)"/>
<path d="M0 0 C2 2 2 2 2 5 C0 6 -2 7 -4 8 C-4 8.66 -4 9.32 -4 10 C-4.66 10 -5.32 10 -6 10 C-4.6302836 6.00499382 -2.74277578 3.19990508 0 0 Z " fill="#8F9097" transform="translate(514,304)"/>
<path d="M0 0 C2.97 0.99 5.94 1.98 9 3 C8.67 3.99 8.34 4.98 8 6 C4.22454612 4.90931332 1.52956528 4.0916909 -1 1 C-0.67 0.67 -0.34 0.34 0 0 Z " fill="#ECEEF1" transform="translate(923,288)"/>
<path d="M0 0 C0 0.66 0 1.32 0 2 C-0.66 2 -1.32 2 -2 2 C-2 2.66 -2 3.32 -2 4 C-6.95 5.485 -6.95 5.485 -12 7 C-8.85595666 3.85595666 -4.70527539 0 0 0 Z " fill="#8E8F94" transform="translate(726,270)"/>
<path d="M0 0 C1.8125 0.234375 1.8125 0.234375 4 0.75 C4.721875 0.90984375 5.44375 1.0696875 6.1875 1.234375 C6.785625 1.48703125 7.38375 1.7396875 8 2 C8.33 2.99 8.66 3.98 9 5 C2.47692308 4.38461538 2.47692308 4.38461538 0.0625 2.4375 C-0.288125 1.963125 -0.63875 1.48875 -1 1 C-0.67 0.67 -0.34 0.34 0 0 Z " fill="#919497" transform="translate(671,929)"/>
<path d="M0 0 C0 0.66 0 1.32 0 2 C-0.99 2 -1.98 2 -3 2 C-3.33 3.65 -3.66 5.3 -4 7 C-5.65 6.67 -7.3 6.34 -9 6 C-3.15384615 0 -3.15384615 0 0 0 Z " fill="#D6D7DB" transform="translate(408,901)"/>
<path d="M0 0 C0.66 0 1.32 0 2 0 C1.34 5.94 0.68 11.88 0 18 C-0.33 18 -0.66 18 -1 18 C-1.02684312 15.18743719 -1.04676188 12.37512759 -1.0625 9.5625 C-1.07087891 8.76005859 -1.07925781 7.95761719 -1.08789062 7.13085938 C-1.0965143 5.08704779 -1.0522815 3.04316098 -1 1 C-0.67 0.67 -0.34 0.34 0 0 Z " fill="#DBDDDC" transform="translate(852,792)"/>
<path d="M0 0 C0.66 0 1.32 0 2 0 C2 3.96 2 7.92 2 12 C-1 9 -1 9 -1.328125 6.9921875 C-1.11111111 1.11111111 -1.11111111 1.11111111 0 0 Z " fill="#828384" transform="translate(225,744)"/>
<path d="M0 0 C-0.99 0.33 -1.98 0.66 -3 1 C-3 1.66 -3 2.32 -3 3 C-7.455 2.01 -7.455 2.01 -12 1 C-7.01222852 -1.49388574 -5.33016752 -0.88836125 0 0 Z " fill="#92949B" transform="translate(315,932)"/>
<path d="M0 0 C0.99 0 1.98 0 3 0 C3.33 0.99 3.66 1.98 4 3 C1.84365964 5.15634036 -0.37098712 6.47793991 -3 8 C-1.125 2.25 -1.125 2.25 0 0 Z " fill="#8F9299" transform="translate(235,624)"/>
<path d="M0 0 C0.33 0 0.66 0 1 0 C1.06058594 0.96421875 1.12117187 1.9284375 1.18359375 2.921875 C1.26738281 4.18515625 1.35117187 5.4484375 1.4375 6.75 C1.55931641 8.62945312 1.55931641 8.62945312 1.68359375 10.546875 C1.92515522 13.18317553 2.24283934 15.48037294 3 18 C1.68 17.34 0.36 16.68 -1 16 C-0.67 10.72 -0.34 5.44 0 0 Z " fill="#A9AAB0" transform="translate(860,456)"/>
<path d="M0 0 C0.66 0.33 1.32 0.66 2 1 C0.89300099 4.21029714 -0.01603825 5.00968977 -3 6.8125 C-3.99 7.204375 -4.98 7.59625 -6 8 C-6.66 7.67 -7.32 7.34 -8 7 C-5.36 4.69 -2.72 2.38 0 0 Z " fill="#919298" transform="translate(944,450)"/>
<path d="M0 0 C3.3 0.33 6.6 0.66 10 1 C8.515 2.485 8.515 2.485 7 4 C3.8125 3.6875 3.8125 3.6875 1 3 C0.67 2.01 0.34 1.02 0 0 Z " fill="#EEEDF1" transform="translate(321,937)"/>
<path d="M0 0 C0.33 0 0.66 0 1 0 C1 2.31 1 4.62 1 7 C0.01 6.67 -0.98 6.34 -2 6 C-1.125 1.125 -1.125 1.125 0 0 Z M-3 6 C-2.67 6 -2.34 6 -2 6 C-2 7.98 -2 9.96 -2 12 C-2.66 11.67 -3.32 11.34 -4 11 C-3.67 9.35 -3.34 7.7 -3 6 Z " fill="#65696D" transform="translate(500,900)"/>
<path d="M0 0 C0.33 0 0.66 0 1 0 C1 2.64 1 5.28 1 8 C0.34 8 -0.32 8 -1 8 C-1.33 8.66 -1.66 9.32 -2 10 C-2.1953125 3.9453125 -2.1953125 3.9453125 -2 2 C-1.34 1.34 -0.68 0.68 0 0 Z " fill="#8C8C94" transform="translate(285,868)"/>
<path d="M0 0 C2.475 0.99 2.475 0.99 5 2 C3.35 3.65 1.7 5.3 0 7 C-0.66 6.67 -1.32 6.34 -2 6 C-1.67 5.01 -1.34 4.02 -1 3 C-0.34 3 0.32 3 1 3 C0.67 2.01 0.34 1.02 0 0 Z " fill="#8F8F95" transform="translate(891,577)"/>
<path d="M0 0 C0.66 0.66 1.32 1.32 2 2 C1.01 3.485 1.01 3.485 0 5 C0 5.66 0 6.32 0 7 C-2.31 7.33 -4.62 7.66 -7 8 C-6.02133662 6.85373678 -5.04205413 5.70800212 -4.0625 4.5625 C-3.51722656 3.92441406 -2.97195313 3.28632812 -2.41015625 2.62890625 C-1.63204305 1.73008851 -0.84063472 0.84063472 0 0 Z " fill="#EDEEF0" transform="translate(1089,79)"/>
<path d="M0 0 C3 3 3 3 3.1875 6.6875 C3.125625 7.780625 3.06375 8.87375 3 10 C2.01 10 1.02 10 0 10 C0 6.7 0 3.4 0 0 Z " fill="#8F8F90" transform="translate(1088,67)"/>
<path d="M0 0 C0.66 0 1.32 0 2 0 C2.33 0.99 2.66 1.98 3 3 C1.35 4.32 -0.3 5.64 -2 7 C-2.66 6.34 -3.32 5.68 -4 5 C-2.71937515 3.2925002 -1.38232443 1.62626404 0 0 Z " fill="#676A6B" transform="translate(494,913)"/>
<path d="M0 0 C0.33 0.66 0.66 1.32 1 2 C1.66 2 2.32 2 3 2 C3.33 1.34 3.66 0.68 4 0 C3.67 2.31 3.34 4.62 3 7 C3.66 7 4.32 7 5 7 C4.67 7.99 4.34 8.98 4 10 C4 9.34 4 8.68 4 8 C3.34 8 2.68 8 2 8 C1.67 7.01 1.34 6.02 1 5 C0.34 4.34 -0.32 3.68 -1 3 C-0.67 2.01 -0.34 1.02 0 0 Z " fill="#8F8F96" transform="translate(428,900)"/>
<path d="M0 0 C0.66 1.32 1.32 2.64 2 4 C-0.31 5.65 -2.62 7.3 -5 9 C-4.67 7.68 -4.34 6.36 -4 5 C-3.34 5 -2.68 5 -2 5 C-1.34 3.35 -0.68 1.7 0 0 Z " fill="#7C7F85" transform="translate(735,627)"/>
<path d="M0 0 C1.32 0.33 2.64 0.66 4 1 C2.35 2.65 0.7 4.3 -1 6 C-1.99 5.34 -2.98 4.68 -4 4 C-3.34 4 -2.68 4 -2 4 C-1.34 2.68 -0.68 1.36 0 0 Z " fill="#F0F3F2" transform="translate(337,448)"/>
<path d="M0 0 C1.66666667 0 3.33333333 0 5 0 C4.1875 2.4375 4.1875 2.4375 3 5 C2.01 5.33 1.02 5.66 0 6 C-0.66 6.66 -1.32 7.32 -2 8 C-1.33333333 5.33333333 -0.66666667 2.66666667 0 0 Z " fill="#8E8D93" transform="translate(1046,424)"/>
<path d="M0 0 C3.875 0.875 3.875 0.875 5 2 C5.04092937 4.33297433 5.04241723 6.66705225 5 9 C4.67 9 4.34 9 4 9 C3.67 7.35 3.34 5.7 3 4 C1.68 3.67 0.36 3.34 -1 3 C-0.67 2.01 -0.34 1.02 0 0 Z " fill="#E0E4E5" transform="translate(962,411)"/>
<path d="M0 0 C1.00289062 0.10183594 2.00578125 0.20367187 3.0390625 0.30859375 C3.80992187 0.39238281 4.58078125 0.47617187 5.375 0.5625 C5.375 0.8925 5.375 1.2225 5.375 1.5625 C1.085 2.2225 -3.205 2.8825 -7.625 3.5625 C-7.625 2.5725 -7.625 1.5825 -7.625 0.5625 C-4.89657939 -0.80171031 -3.01546682 -0.31557211 0 0 Z " fill="#797C82" transform="translate(823.625,402.4375)"/>
<path d="M0 0 C0.33 0 0.66 0 1 0 C2.125 7.625 2.125 7.625 1 11 C0.34 11 -0.32 11 -1 11 C-1.33 11.66 -1.66 12.32 -2 13 C-1.34 8.71 -0.68 4.42 0 0 Z " fill="#7C7F88" transform="translate(754,566)"/>
<path d="M0 0 C3 1 3 1 6 3 C3.69 3.66 1.38 4.32 -1 5 C-1.33 3.68 -1.66 2.36 -2 1 C-1.34 0.67 -0.68 0.34 0 0 Z " fill="#F4F4F3" transform="translate(898,474)"/>
<path d="M0 0 C0.99 0.99 1.98 1.98 3 3 C2.01 4.485 2.01 4.485 1 6 C-0.65 5.67 -2.3 5.34 -4 5 C-2.68 3.35 -1.36 1.7 0 0 Z " fill="#F0EFF2" transform="translate(1021,468)"/>
<path d="M0 0 C0.99 0.99 1.98 1.98 3 3 C1.515 5.475 1.515 5.475 0 8 C-0.66 7.67 -1.32 7.34 -2 7 C-2 5.35 -2 3.7 -2 2 C-1.34 2 -0.68 2 0 2 C0 1.34 0 0.68 0 0 Z " fill="#F0F2F1" transform="translate(1003,272)"/>
<path d="M0 0 C0.99 1.32 1.98 2.64 3 4 C1.68 5.32 0.36 6.64 -1 8 C-2.2077558 4.37673261 -1.54311128 3.35853631 0 0 Z " fill="#8D8D94" transform="translate(1020,77)"/>
<path d="M0 0 C0.66 0.99 1.32 1.98 2 3 C1.625 4.875 1.625 4.875 1 7 C0.96213099 8.66623639 0.95372155 10.33397597 1 12 C-1 11 -1 11 -1.75 8.8125 C-2.05194616 5.41560571 -1.24302818 3.14413009 0 0 Z " fill="#919295" transform="translate(228,640)"/>
<path d="M0 0 C1.32 0.66 2.64 1.32 4 2 C1.06279492 3.52299523 -1.9168649 4.80100302 -5 6 C-3.35 4.02 -1.7 2.04 0 0 Z " fill="#E6E7EB" transform="translate(890,584)"/>
<path d="M0 0 C0.66 0.33 1.32 0.66 2 1 C1.01 2.485 1.01 2.485 0 4 C-0.68177416 5.32567199 -1.35191436 6.65753688 -2 8 C-2.99 7.67 -3.98 7.34 -5 7 C-3.70700306 4.11562221 -2.34058637 2.12780579 0 0 Z " fill="#3C3F41" transform="translate(816,375)"/>
<path d="M0 0 C-2.36292656 2.52588702 -3.66462511 3.88820837 -7 5 C-7.66 4.34 -8.32 3.68 -9 3 C-5.92807025 0.26939578 -4.09590633 -0.34132553 0 0 Z " fill="#8E8E93" transform="translate(709,283)"/>
<path d="M0 0 C1.32 0.66 2.64 1.32 4 2 C3.01 3.485 3.01 3.485 2 5 C0.35 4.67 -1.3 4.34 -3 4 C-2.01 2.68 -1.02 1.36 0 0 Z " fill="#EFEFF2" transform="translate(697,283)"/>
<path d="M0 0 C0.66 0.33 1.32 0.66 2 1 C2 1.99 2 2.98 2 4 C-0.31 4.33 -2.62 4.66 -5 5 C-3.35 3.35 -1.7 1.7 0 0 Z " fill="#919096" transform="translate(537,282)"/>
<path d="M0 0 C0.625 1.875 0.625 1.875 1 4 C0.34 4.66 -0.32 5.32 -1 6 C-2.32 5.01 -3.64 4.02 -5 3 C-2.25 0 -2.25 0 0 0 Z " fill="#F2F6F6" transform="translate(895,265)"/>
<path d="M0 0 C0.66 0.99 1.32 1.98 2 3 C0.35 4.65 -1.3 6.3 -3 8 C-3.33 7.01 -3.66 6.02 -4 5 C-3.34 4.01 -2.68 3.02 -2 2 C-1.34 2 -0.68 2 0 2 C0 1.34 0 0.68 0 0 Z " fill="#8A8D95" transform="translate(396,905)"/>
<path d="M0 0 C0.6875 1.75 0.6875 1.75 1 4 C-0.4375 6.25 -0.4375 6.25 -2 8 C-2.99 7.34 -3.98 6.68 -5 6 C-3.35 4.02 -1.7 2.04 0 0 Z " fill="#EAEAED" transform="translate(880,595)"/>
<path d="M0 0 C0.99 0 1.98 0 3 0 C3.33 0.99 3.66 1.98 4 3 C1.525 4.485 1.525 4.485 -1 6 C-1.66 5.34 -2.32 4.68 -3 4 C-2.34 4 -1.68 4 -1 4 C-0.67 2.68 -0.34 1.36 0 0 Z " fill="#8C8F95" transform="translate(900,571)"/>
<path d="M0 0 C0.99 1.32 1.98 2.64 3 4 C2.01 5.485 2.01 5.485 1 7 C0.01 6.67 -0.98 6.34 -2 6 C-1.34 4.02 -0.68 2.04 0 0 Z " fill="#F4F4F4" transform="translate(508,305)"/>
<path d="M0 0 C1 3 1 3 -0.4375 6.1875 C-1.2109375 7.5796875 -1.2109375 7.5796875 -2 9 C-2.66 7.68 -3.32 6.36 -4 5 C-2.68 3.35 -1.36 1.7 0 0 Z " fill="#D3D5DC" transform="translate(767,907)"/>
<path d="M0 0 C-0.33 1.65 -0.66 3.3 -1 5 C-4 5 -4 5 -6 4 C-2.25 0 -2.25 0 0 0 Z " fill="#8E8E93" transform="translate(875,600)"/>
<path d="M0 0 C0.66 0.33 1.32 0.66 2 1 C1.25 2.9375 1.25 2.9375 0 5 C-2.125 5.75 -2.125 5.75 -4 6 C-4 5.01 -4 4.02 -4 3 C-2 1.3125 -2 1.3125 0 0 Z " fill="#EBEBEC" transform="translate(909,569)"/>
<path d="M0 0 C0.66 1.32 1.32 2.64 2 4 C0.68 4.99 -0.64 5.98 -2 7 C-2.33 6.01 -2.66 5.02 -3 4 C-1.5625 1.8125 -1.5625 1.8125 0 0 Z " fill="#EDEDED" transform="translate(302,481)"/>
<path d="M0 0 C0.66 0.33 1.32 0.66 2 1 C1.67 1.99 1.34 2.98 1 4 C0.01 4 -0.98 4 -2 4 C-2.33 4.66 -2.66 5.32 -3 6 C-5 5 -5 5 -6 3 C-4.03533587 1.93224776 -2.03144641 0.93446535 0 0 Z " fill="#ECEDED" transform="translate(941,423)"/>
<path d="M0 0 C1.485 0.99 1.485 0.99 3 2 C3.1875 5.125 3.1875 5.125 3 8 C1.68 8 0.36 8 -1 8 C-0.67 5.36 -0.34 2.72 0 0 Z " fill="#3C3D41" transform="translate(834,376)"/>
<path d="M0 0 C0 0.66 0 1.32 0 2 C-2.3125 2.625 -2.3125 2.625 -5 3 C-5.99 2.34 -6.98 1.68 -8 1 C-3.375 -1.125 -3.375 -1.125 0 0 Z " fill="#EDEDED" transform="translate(670,274)"/>
<path d="M0 0 C1.258125 0.12375 2.51625 0.2475 3.8125 0.375 C4.87404297 0.47941406 4.87404297 0.47941406 5.95703125 0.5859375 C8 1 8 1 11 3 C8.36 3 5.72 3 3 3 C3 2.34 3 1.68 3 1 C2.01 0.67 1.02 0.34 0 0 Z " fill="#8B9094" transform="translate(629,268)"/>
<path d="M0 0 C-2.61673759 1.40182371 -5.0371669 2.60495559 -8 3 C-8.66 2.34 -9.32 1.68 -10 1 C-6.78548731 -0.60725635 -3.56387464 -0.05748185 0 0 Z " fill="#EEF1F2" transform="translate(712,939)"/>
<path d="M0 0 C-0.66 1.32 -1.32 2.64 -2 4 C-3.32 3.34 -4.64 2.68 -6 2 C-6 1.34 -6 0.68 -6 0 C-3.50907189 -1.24546405 -2.58919267 -0.7767578 0 0 Z " fill="#919097" transform="translate(639,818)"/>
<path d="M0 0 C0.33 0 0.66 0 1 0 C2.12029814 5.48946087 1.79217969 8.83430559 0 14 C-0.33 14 -0.66 14 -1 14 C-1.08333357 9.1666528 -0.95261487 4.76307437 0 0 Z " fill="#D6D9DB" transform="translate(229,702)"/>
<path d="M0 0 C0.33 0.99 0.66 1.98 1 3 C1.66 3 2.32 3 3 3 C2.34 4.32 1.68 5.64 1 7 C0.01 6.34 -0.98 5.68 -2 5 C-1.34 3.35 -0.68 1.7 0 0 Z " fill="#7F8385" transform="translate(244,609)"/>
<path d="M0 0 C0.99 0.66 1.98 1.32 3 2 C-0.625 5 -0.625 5 -4 5 C-3 2 -3 2 0 0 Z " fill="#8B8E93" transform="translate(973,514)"/>
<path d="M0 0 C0.66 0.33 1.32 0.66 2 1 C2.75 4.4375 2.75 4.4375 3 8 C2.34 8.66 1.68 9.32 1 10 C0.63883954 8.5225254 0.28624952 7.04295325 -0.0625 5.5625 C-0.25972656 4.73878906 -0.45695312 3.91507812 -0.66015625 3.06640625 C-0.82837891 2.04353516 -0.82837891 2.04353516 -1 1 C-0.67 0.67 -0.34 0.34 0 0 Z " fill="#EEEEEE" transform="translate(1090,66)"/>
</svg>
