<?xml version="1.0"?>
<svg xmlns:rdf="http://www.w3.org/1999/02/22-rdf-syntax-ns#" xmlns="http://www.w3.org/2000/svg" xmlns:cc="http://creativecommons.org/ns#" xmlns:xlink="http://www.w3.org/1999/xlink" xmlns:dc="http://purl.org/dc/elements/1.1/" xmlns:svg="http://www.w3.org/2000/svg" id="svg1" viewBox="0 0 586.13 529.26" version="1.0">
  <defs id="defs3">
    <linearGradient id="linearGradient1884" y2="813.42" gradientUnits="userSpaceOnUse" y1="911.72" gradientTransform="matrix(.46245 0 0 .51150 -11.669 -39.524)" x2="1136.3" x1="1151.5">
      <stop id="stop859" stop-color="#fff48f" offset="0"/>
      <stop id="stop861" stop-color="#fffde5" offset="1"/>
    </linearGradient>
    <radialGradient id="radialGradient867" gradientUnits="userSpaceOnUse" cy="821.33" cx="1216.2" gradientTransform="matrix(.46663 0 0 .50692 -11.669 -39.524)" r="56.314">
      <stop id="stop869" stop-color="#ffe8da" offset="0"/>
      <stop id="stop870" stop-color="#ffc5a5" offset="1"/>
    </radialGradient>
    <linearGradient id="linearGradient874" y2="1690.1" gradientUnits="userSpaceOnUse" y1="1591.2" gradientTransform="matrix(.79580 0 0 .29724 -11.669 -39.524)" x2="483.34" x1="426.94">
      <stop id="stop876" stop-color="#efc65c" offset="0"/>
      <stop id="stop877" stop-color="#af9143" offset="1"/>
    </linearGradient>
    <linearGradient id="linearGradient878" y2="1742.4" gradientUnits="userSpaceOnUse" y1="1633" gradientTransform="matrix(.73964 0 0 .31981 -11.669 -39.524)" x2="289.34" x1="239.51">
      <stop id="stop880" stop-color="#ffecd5" offset="0"/>
      <stop id="stop881" stop-color="#af9143" offset="1"/>
    </linearGradient>
  </defs>
  <path id="path872" d="m164.54 529.26l339.75-83.5s25.91-4.21 33.61-7.71c10.15-1.05 26.78-3.15 33.78-7.35 9.98-5.95 3.68-47.26-14.87-51.46-16.11-2.1-28.36 7.35-33.26 8.05-3.5 0-28.01 4.2-34.83 7.71-4.9 4.2-339.75 81.91-339.75 81.91s-38.75 29.2-62.559 36.9c7.013 4.86 10.799 7.67 12.73 9.81 11.589-0.71 43.939 0.45 65.399 5.64z" fill-opacity=".07" fill-rule="evenodd"/>
  <path id="path871" d="m170.01 514.67l339.93-83.68c1.22 0 25.73-4.2 33.43-7.7 10.15-1.05 28.18-2.97 35.18-7.18 9.98-5.95 2.98-49.18-15.75-55.48-18.9 0.35-29.58 7.87-34.48 8.57-3.5 0-25.56 4.56-34.31 7.53-8.4 2.1-339.74 81.57-339.74 81.57s-33.16 26.57-67.116 38.65c7.013 4.86 15.176 10.29 17.106 12.43 11.58-0.71 44.29 0.1 65.75 5.29z" stroke="#000" stroke-width="6.0795" fill="none"/>
  <path id="path1910" d="m21.673 387.4c4.531 3.23 17.093-3.71 49.836-92.89 33.131-99.22 24.842-98.11 25.195-101.21" stroke="#000" stroke-width="7.5808" fill="none"/>
  <path id="path1911" d="m9.3338 385.21c-5.5633-0.16-12.914-8.72 11.535-105.52 20.728-67.24 34.065-95.71 42.635-100.65" stroke="#000" stroke-width="7.5808" fill="none"/>
  <path id="path1914" d="m61.099 188.17c-10.658-2.68-5.883-19.8 4.511-19.24" stroke="#000" stroke-width="7.5808" fill="none"/>
  <path id="path1905" d="m62.697 183.18c-22.413 35.08-56.478 144.18-54.97 197.09-0.6028 2.29 16.176 7.2 17.088 5.51 30.437-42.97 65.799-150.21 70.849-192.18-16.275-10.68-32.967-10.42-32.967-10.42z" fill-rule="evenodd" stroke="#000" stroke-width=".60646pt" fill="#8c9fbd"/>
  <path id="path1912" d="m95.724 198.47c7.006 1.08 14.706-8.13 6.036-18.64" stroke="#000" stroke-width="7.5808" fill="none"/>
  <path id="path1915" d="m60.643 170.62c0.419-30.71 20.418-81.327 23.129-89.396 2.712-8.069 34.268-83.326 54.958-77.064 20.7 6.262 15.77 49.195-4.05 109.54-19.82 60.35-31.18 70.41-31.18 70.41" stroke="#000" stroke-width="7.5808" fill="none"/>
  <path id="path1903" d="m138.33 8.0324c-26.67-7.7493-73.21 116.23-74.074 162.47-1.623 6.41 8.773 5.69 19.431 8.44 10.951 2.85 16.693 9.46 18.173 3.57 26.95-44.87 64.65-165.41 36.47-174.48z" fill-rule="evenodd" stroke="#000" stroke-width=".60646pt" fill="#8c9fbd"/>
  <path id="path1904" d="m59.342 177.84c-3.017 10.06 8.254 6.71 19.529 9.88 11.274 3.17 20.138 10.73 22.549 3.54 2.42-7.19-8.993-15.84-18.17-17.69s-21.447-4.13-23.908 4.27z" fill-rule="evenodd" stroke="#000" stroke-width="3.7904" fill="#fae472"/>
  <path id="path1906" d="m16.687 365.96c14.007-84.18 34.011-136.86 41.926-156.3 7.234-20.33-10.548 53.86-14.186 64.68l-27.74 91.62z" fill-opacity=".54167" fill="#fff" fill-rule="evenodd"/>
  <path id="path1907" d="m73.835 167.51c10.3-61.66 30.715-108.85 36.595-116.65 5.87-7.794-3 28.3-3 28.3l-33.595 88.35z" fill-opacity=".54167" fill="#fff" fill-rule="evenodd"/>
  <path id="path1918" d="m299.95 263.47c-2.6-0.21-5.24-0.12-7.84-0.15-20.09-0.36-40.13-0.34-60.22 0.14-39.2 1.11-79.2 2.01-117.79 9.57-1.32 0.31-9.48 1.3-10.2 3.15-0.41 1.06 2.42-1.05 2.64-2.17 0.24-1.24-2.53-3.65-1.27-3.57 12.58 0.7 26.13 4.75 38.69 6.48 60.37 8.02 121.77 11.68 181.68 22.66 70.27 16.2-32.57 30.64-46.41 31.86-44.38 3.35-91.07 1.07-134.85 9.7-0.7 0.22 0.07-5.65 5.86-2.8 11.43 5.62 23.28 10.42 34.92 15.57 9.36 4.2 46.29 15.71 41.88 30.77-9.65 12.14-34.54 10.79-48.47 11.52-17.68 0.76-35.36 0.81-53.05 0.9-7.47 0.07-14.97 0.08-22.4 0.93-6.03 0.74-12.02 1.32-18.089 1.67-6.464 0.37-12.923 0.9-19.364 1.56-5.636 0.67-11.24 1.51-16.906 1.9-4.493 0.27-8.976 0.66-13.475 0.83-4.093 0.13-8.185 0.09-12.28 0.04-3.432-0.05-6.86-0.16-10.279 0.22l-2.583-10.57c4.41-0.41 8.798-0.39 13.221-0.33 3.655 0.05 7.309 0.08 10.963-0.03 4.236-0.14 8.459-0.49 12.691-0.72 5.391-0.34 10.721-1.18 16.087-1.77 6.783-0.65 13.579-1.19 20.381-1.61 5.65-0.35 11.22-0.97 16.843-1.63 8.39-0.88 16.85-0.78 25.28-0.7 17.21 0.2 34.41 0.37 51.6-0.46 9.15-0.55 18.44-1.11 27.42-3.02 0.66-0.14 6.49-2.08 6.61-1.52 1.64 3.08-4.81-5.16-7.76-7-8.41-5.25-17.54-9.34-26.55-13.44-4.94-2.19-71.69-24.19-36.1-30.03 45.25-4.99 91.15-3.78 136.53-7.78 8.31-0.88 81.65-4.82 44.09-15.77-58.6-13.41-120.19-16.72-179.86-22.93-11.24-1.15-89.414-10.7-31.43-21.08 39.94-6.17 80.69-7.41 121.01-9.17 20.31-0.87 40.61-1.6 60.94-1.96 2.6-0.03 5.24 0.06 7.84-0.15v10.89z" fill-opacity=".75"/>
  <path id="path1919" d="m23.821 394.75c1.144-0.49 5.462-2.34 8.151-3.48 2.378-1.02 4.755-2.04 7.133-3.05 2.577-1.1 5.321-1.84 7.723-2.86 2.206-0.95 6.109-1.73 8.315-2.68 2.237-0.95 7.044-1.24 9.497-2.29 1.446-0.62 8.324-2.27 10.599-2.33 1.624-0.7 6.443-2.01 8.988-2.08 2.645-1.13 7.475-1.43 10.007-2.52 2.792-1.19 9.046-1.22 11.696-2.35 0.58 0.18 9.6-1.46 10.68-1.93 4.2-0.11 6.63-2.01 11.19-2.14 1.7-0.72 8.06-1.85 10.68-1.92 2.45-1.04 8.59-1.03 11.19-2.14 1.19-0.51 7.85-2.06 8.48-1.86 2.61-1.12 6.07-0.83 8.48-1.86 2.34-1 4.47-1.03 7.3-2.24 0.73-0.31 7.26-1.87 7.97-1.65 2.11-0.9 6.11-1.73 7.8-2.45 2.5-1.07 5.12-1.75 7.72-2.86 2.32-0.07 7.19-1.75 8.4-2.27 2.37-0.06 7.09-1.27 8.48-1.86 2.59-0.07 7.85-1.59 9.5-2.3 2.35-0.06 7.33-1.81 8.9-2.48 4-0.11 5.88-2.2 10.6-2.33 2.75-1.18 7.39-1.4 10.01-2.52 2.49-1.06 7.93-0.75 10.68-1.92 4.75-0.13 8.37-1.04 13.04-1.17 1.8-0.77 8.78-0.67 10.26-1.3 2.21-0.06 7.92-1.63 8.99-2.08 3.67-0.1 7.02-0.81 11.43-0.93 0.6-0.26 10.48-0.47 11.6-0.11 2.12-0.06 9.31 1.3 9.64 1.16 3.85 1.22-0.34 2.55 1.76 3.21-2.59 1.11-3.08 2.2-5.44 3.21-1.24 0.53-2.46 1.93-4.93 2.99-1.38 0.58-3.86 2.09-6.03 3.01-2.52 1.08-5.45 1.89-7.73 2.86-1.71 0.74-6.1 0.85-8.47 1.87-2.35 0.06-7.94 1.62-9.5 2.29-1.76 0.05-7.72 1.54-8.99 2.08-2.37 1.02-7.13 1.29-9.5 2.3-1.92 0.82-8.18 2.06-11.19 2.14-2.54 1.09-7.29 0.92-9.58 1.89-2.31 0.07-9.2 1.29-10.68 1.93-1.86 0.79-7.05 1.25-9.49 2.29-3.68 0.57-8.41 2.07-12.3 2.17-2.39 1.03-8.22 0.88-10.68 1.93-2.66 0.07-5.95 2.1-7.72 2.86-1.86 0.79-6.16-0.01-8.64 1.05-2.46 1.05-6.21 1.33-8.91 2.48-2.45 1.05-5.97 1.67-8.31 2.68-2.45 1.04-6.99 1.22-9.5 2.29-2.07 0.06-8.1 1.7-8.99 2.08-2.47 1.06-7.51 1.02-10.09 2.11-3.46 0.1-6.22 1.6-10.17 1.71-2.64 1.13-8.54 1.45-10.09 2.11-1.12 0.48-9.25 2-10.17 1.7-2.64 1.13-7.57 1.04-10.09 2.11-1.17-0.37-8.046 1.65-10.167 1.71-2.344 1-7.059 1.26-9.498 2.3-1.932 0.82-7.652 1.87-10.598 2.33-1.554-0.5-7.68 1.73-9.152 1.26-2.249 0.97-6.413 0.98-8.478 1.87-4.312 0.12-5.75 0.97-10.845 1.11-0.811 0.35-8.413 0.36-9.989-0.13-1.939 0.82-7.376-1.21-9.215-1.79-4.369-1.39-5.976-1.41-1.757-3.21z" fill-opacity=".066667" fill-rule="evenodd"/>
  <path id="path1909" d="m8.6731 383.7c-3.8857 22.71 2.0329 25.78 14.192 4.33-5.478-0.44-12.118-3.13-14.192-4.33z" fill-rule="evenodd" stroke="#000" stroke-width="4.6243" fill="#929292"/>
  <path id="path849" d="m156.16 460.91s-30.39 24.66-62.573 36.54c0.027 1.73 10.383 7.14 11.363 8.93 23.39-2.07 65.57 5.03 65.57 5.03l65.84-21.29-8.41-40.1-71.79 10.89z" fill-rule="evenodd" stroke="#000" stroke-width=".48636pt" fill="url(#linearGradient878)"/>
  <path id="path848" d="m495.24 379.88l-338.87 81.22s89.96-5.95 10.85 24.5c85.77-7.7 5.25 24.86 2.45 25.91 14-2.8 339.74-83.67 339.74-83.67s4.03-31.15-14.17-47.96z" fill-rule="evenodd" stroke="#000" stroke-width=".48636pt" fill="url(#linearGradient874)"/>
  <path id="path855" d="m499.99 391.97c-7.42 2.48-279.22 67.21-297.54 72.66" stroke-opacity=".18333" stroke="#000" stroke-linecap="round" stroke-width="1.8238" fill="none"/>
  <path id="path854" d="m116.87 486.84c0 7.55 6.99 14.18 8.84 19.5-5.56-0.25-19.92-0.56-20.54 0.25-3.16-3.41-10.645-6.63-11.45-9.16 7.36-2.73 11.7-4.77 23.15-10.59z" stroke="#000" stroke-width=".48636pt" fill-rule="evenodd"/>
  <path id="path857" d="m543.06 420.23c4.03-27.65-10.85-46.73-14-47.96-1.58-0.7 30.98-11.2 34.48-7.87 7.18 1.22 24.16 26.95 14.53 47.78-1.58 4.9-31.86 7.88-35.01 8.05z" fill-rule="evenodd" stroke="#000" stroke-width=".48636pt" fill="url(#radialGradient867)"/>
  <path id="path856" d="m509.24 427.84c4.02-27.65-10.85-46.73-14-47.96-1.58-0.7 32.9-8.22 34.48-7.87 1.57 0.35 21.18 27.65 14.53 47.78-8.93 3.5-31.86 7.88-35.01 8.05z" fill-rule="evenodd" stroke="#000" stroke-width=".48636pt" fill="url(#linearGradient1884)"/>
  <path id="path862" d="m519.3 425.89c4.33-26.24-12.87-47.65-12.87-47.65" stroke-opacity=".26667" stroke="#000" stroke-width=".48636pt" fill="none"/>
  <path id="path863" d="m534.75 422.86c4.33-26.24-12.87-48.15-12.87-48.15" stroke-opacity=".26667" stroke="#000" stroke-width=".48636pt" fill="none"/>
  <path id="path864" d="m508.2 377.96c16.67 22 13.32 45.12 13.19 45.98" stroke="#fff" stroke-linecap="round" stroke-width="2.4318" fill="none"/>
  <path id="path866" d="m523.86 374.47c16.18 23.1 13.2 44.86 13.07 46.1" stroke="#fff" stroke-linecap="round" stroke-width="2.4318" fill="none"/>
  <path id="path873" d="m506.43 415.68c-7.43 2.47-279.22 67.2-297.54 72.65" stroke-opacity=".18333" stroke="#000" stroke-linecap="round" stroke-width="1.8238" fill="none"/>
  <metadata>
    <rdf:RDF>
      <cc:Work>
        <dc:format>image/svg+xml</dc:format>
        <dc:type rdf:resource="http://purl.org/dc/dcmitype/StillImage"/>
        <cc:license rdf:resource="http://creativecommons.org/licenses/publicdomain/"/>
        <dc:publisher>
          <cc:Agent rdf:about="http://openclipart.org/">
            <dc:title>Openclipart</dc:title>
          </cc:Agent>
        </dc:publisher>
        <dc:title>pen &amp; pencil</dc:title>
        <dc:date>2008-02-07T16:24:39</dc:date>
        <dc:description>cartoon blackborder, cartoon blackborder, clip art, clipart, drawing, drawing, image, media, office, office, pen, pen, pencil, pencil, png, public domain, school, school, svg, writing, writing, writing instrument, writing instrument, </dc:description>
        <dc:source>http://openclipart.org/detail/13088/pen-&amp;-pencil-by-anonymous-13088</dc:source>
        <dc:creator>
          <cc:Agent>
            <dc:title>Anonymous</dc:title>
          </cc:Agent>
        </dc:creator>
        <dc:subject>
          <rdf:Bag>
            <rdf:li>cartoon blackborder</rdf:li>
            <rdf:li>clip art</rdf:li>
            <rdf:li>clipart</rdf:li>
            <rdf:li>drawing</rdf:li>
            <rdf:li>image</rdf:li>
            <rdf:li>media</rdf:li>
            <rdf:li>office</rdf:li>
            <rdf:li>pen</rdf:li>
            <rdf:li>pencil</rdf:li>
            <rdf:li>png</rdf:li>
            <rdf:li>public domain</rdf:li>
            <rdf:li>school</rdf:li>
            <rdf:li>svg</rdf:li>
            <rdf:li>writing</rdf:li>
            <rdf:li>writing instrument</rdf:li>
          </rdf:Bag>
        </dc:subject>
      </cc:Work>
      <cc:License rdf:about="http://creativecommons.org/licenses/publicdomain/">
        <cc:permits rdf:resource="http://creativecommons.org/ns#Reproduction"/>
        <cc:permits rdf:resource="http://creativecommons.org/ns#Distribution"/>
        <cc:permits rdf:resource="http://creativecommons.org/ns#DerivativeWorks"/>
      </cc:License>
    </rdf:RDF>
  </metadata>
</svg>
